<svg xmlns="http://www.w3.org/2000/svg" xmlns:xlink="http://www.w3.org/1999/xlink" width="310" height="100" viewBox="0 0 310 100"><defs><linearGradient id="a" x1="33.27112" y1="21.97363" x2="55.70835" y2="32.31301" gradientUnits="userSpaceOnUse"><stop offset="0" stop-color="#fc4c2d"/><stop offset="0.52684" stop-color="#fc7244"/><stop offset="1" stop-color="#ff7256"/></linearGradient></defs><title>tinyLABO</title><path d="M19.94141,85.77832q-12.47388,0-12.47315-11.3916l-.03174-20.873-3.65918.15918q-1.71825,0-1.71826-1.30469,0-1.30371,1.84522-1.30468l3.05468.127h.47754V46.25879l13.64991-6.10938v11.041h4.26416l3.02246-.127q1.87719,0,1.87744,1.33691a1.05373,1.05373,0,0,1-.5249.93848,2.17531,2.17531,0,0,1-1.19336.334l-3.94532-.15918H21.08643V83.42383A9.63291,9.63291,0,0,0,27.2915,81.292a4.82476,4.82476,0,0,0,1.67041-2.291,5.3313,5.3313,0,0,1,.89112-1.79786,1.28387,1.28387,0,0,1,.93847-.39746,1.19011,1.19011,0,0,1,.92286.42969,1.4822,1.4822,0,0,1,.38183,1.01758,3.25415,3.25415,0,0,1-.31836,1.30469,7.05281,7.05281,0,0,1-.95459,1.51172,11.315,11.315,0,0,1-3.30908,2.832A15.41612,15.41612,0,0,1,19.94141,85.77832Z" fill="#050819"/><path d="M44.187,45.62256a8.041,8.041,0,0,1-5.12256-1.46387,4.67554,4.67554,0,0,1-1.8457-3.8501,4.14256,4.14256,0,0,1,2.03662-3.43652,7.81229,7.81229,0,0,1,4.582-1.52734,11.45394,11.45394,0,0,1,3.73828.47754A7.45658,7.45658,0,0,1,49.81934,37.063a4.6419,4.6419,0,0,1,1.84521,3.62744,4.16473,4.16473,0,0,1-2.1001,3.5A9.34976,9.34976,0,0,1,44.187,45.62256Zm-6.68164,5.56787H51.1875v33.9834H37.50537Z" fill="#050819"/><path d="M82.53174,54.65918a3.13287,3.13287,0,0,0-1.71778-.50879,4.75234,4.75234,0,0,0-1.90917.42969,11.74931,11.74931,0,0,0-2.06836,1.19238,18.08637,18.08637,0,0,0-4.168,4.32813V85.17383H58.98584V51.19043H72.66846v5.44141q5.44043-6.01318,12.31347-6.01416,11.231,0,11.23243,10.88232V85.17383H82.53174Z" fill="#050819"/><path d="M108.95264,92.68359a5.48774,5.48774,0,0,0,2.70507-1.55957,21.69126,21.69126,0,0,0,2.6084-4.582l.73243-1.68652-17.3418-33.665h14.47754l9.03711,19.21973,5.21777-12.1875a38.25192,38.25192,0,0,0,1.87793-5.09082,4.94681,4.94681,0,0,1,.875-2.13233,1.52494,1.52494,0,0,1,1.0498-.38183,1.25114,1.25114,0,0,1,.97071.38183,1.14206,1.14206,0,0,1,.34961.76416,4.486,4.486,0,0,1-.0791.81153,9.19856,9.19856,0,0,1-.31836,1.1455q-.23877.71631-.68457,1.79785L117.22607,86.12793q-2.35547,5.53711-4.51855,7.7959a5.19934,5.19934,0,0,1-3.73926,2.00488q-1.89258,0-1.89258-1.32031Q107.07568,93.28711,108.95264,92.68359Z" fill="#050819"/><path d="M167.50684,82.27832q1.6875,0,1.68652,1.43164a1.24433,1.24433,0,0,1-.68359,1.01856,4.76324,4.76324,0,0,1-2.43457.44531H140.23877V40.14941h16.22705V83.07422h5.9502a13.11933,13.11933,0,0,0,3.45214-.39844A13.5254,13.5254,0,0,1,167.50684,82.27832Z" fill="#050819"/><path d="M184.5293,79.50977q-5.82276,0-7.95508-.09473l-.92285,2.19531q-.41308.92286-.76367,1.94043-.73244,1.97314-2.03614,1.97266a1.33351,1.33351,0,0,1-.98633-.38184,1.12325,1.12325,0,0,1-.38183-.79492,2.79385,2.79385,0,0,1,.60449-1.55957,18.6677,18.6677,0,0,0,1.877-3.5q-2.73633-.25342-2.73632-1.59082,0-1.33595,1.55957-1.33594a9.41188,9.41188,0,0,1,2.22753.31738l15.877-38.56494,21.76465,47.061H196.0791l-2.64062-5.66406Zm-6.93653-2.57715q3.05421.25488,5.47266.25488h9.32324l-7.95508-17.15039Z" fill="#050819"/><path d="M218.38574,40.14941h13.666q5.07569,0,6.15722.03174a20.1373,20.1373,0,0,1,6.6504,1.09766,11.15264,11.15264,0,0,1,3.08593,1.957,7.92183,7.92183,0,0,1,2.4502,5.855,8.53518,8.53518,0,0,1-2.38574,5.98242,7.59055,7.59055,0,0,1-1.68653,1.36817,15.3775,15.3775,0,0,1,8.49512,4.35937,12.4179,12.4179,0,0,1,3.5957,9.00488,13.88566,13.88566,0,0,1-3.34082,9.32227Q250.396,84.53761,240.627,85.04688q-2.48144.12744-4.89941.12695h-17.3418Zm20.87305,15.65528,1.62305.19043h.50878A5.96022,5.96022,0,0,0,245.75,54.15039a6.57669,6.57669,0,0,0,1.97266-4.83691A5.97669,5.97669,0,0,0,244.7002,43.936a7.32854,7.32854,0,0,0-3.03907-1.12989q-1.51172-.17432-2.37011-.23828-1.78272-.1267-4.67774-.12744V82.81934h3.53223a24.44632,24.44632,0,0,0,8.81347-1.33692,13.36352,13.36352,0,0,0,6.46-4.51758,10.08185,10.08185,0,0,0,2.25878-6.20507,13.90916,13.90916,0,0,0-.9541-5.47266A10.26492,10.26492,0,0,0,251.95508,61.5q-3.69141-3.2124-10.27735-3.21289l-2.19628.19043a2.25025,2.25025,0,0,1-1.49512-.41309,1.23438,1.23438,0,0,1-.47754-.95507Q237.50879,55.8042,239.25879,55.80469Z" fill="#050819"/><path d="M268.3125,79.43066a22.61522,22.61522,0,0,1-5.01074-7.44628,24.11866,24.11866,0,0,1-1.86133-9.54493,23.37013,23.37013,0,0,1,1.76562-9.292,21.781,21.781,0,0,1,4.88379-7.14355,23.22655,23.22655,0,0,1,16.76856-6.42725q10.02393,0,16.41894,6.332,6.49072,6.42774,6.49121,16.67334,0,10.21435-6.65039,16.80078a22.26455,22.26455,0,0,1-10.24609,5.63184,28.82344,28.82344,0,0,1-7.01562.76367,22.454,22.454,0,0,1-8.19336-1.63867A21.72245,21.72245,0,0,1,268.3125,79.43066Zm16.51465-37.53125a19.97161,19.97161,0,0,0-3.27735.2544V83.20117a19.19724,19.19724,0,0,0,3.27735.25488A19.74936,19.74936,0,0,0,299.14551,77.792q6.07764-5.8872,6.07715-15.21a20.385,20.385,0,0,0-5.69532-14.76416A19.62731,19.62731,0,0,0,284.82715,41.89941Z" fill="#050819"/><path d="M36.927,45.13088c-6.93912-4.73516-6.98388-14.14728-1.8506-20.15454-3.51847,6.5548,4.9309,9.51793,5.65488-.20624.29528-3.966-1.81448-7.32244-1.33946-11.40083.34446-2.95743,1.896-6.14194,3.28884-8.74281C40.81292,16.81045,53.3479,18.93122,55.83233,29.682,58.15071,39.71422,47.42667,52.29574,36.927,45.13088Z" fill-rule="evenodd" fill="url(#a)"/></svg>