<svg xmlns="http://www.w3.org/2000/svg" width="290" height="60" viewBox="0 0 290 60"><title>tinyLABO</title><path d="M14.38965,50.61865q-9.1875,0-9.1875-8.39062L5.17871,26.853l-2.69531.11718q-1.26562,0-1.26563-.96093t1.35938-.96094l2.25.09375h.35156V21.50928l10.05469-4.5v8.13281H18.374l2.22657-.09375q1.3828,0,1.38281.98437a.77606.77606,0,0,1-.38672.69141,1.60193,1.60193,0,0,1-.87891.24609L17.81152,26.853H15.2334V48.88428A7.09666,7.09666,0,0,0,19.80371,47.314a3.55064,3.55064,0,0,0,1.23047-1.6875,3.9343,3.9343,0,0,1,.65625-1.32421.94556.94556,0,0,1,.69141-.293.87748.87748,0,0,1,.67968.3164,1.09159,1.09159,0,0,1,.28125.75,2.39339,2.39339,0,0,1-.23437.96094,5.19307,5.19307,0,0,1-.70313,1.11328,8.33749,8.33749,0,0,1-2.4375,2.08594A11.35763,11.35763,0,0,1,14.38965,50.61865Z" fill="#fe1b31"/><path d="M32.249,21.04053a5.92562,5.92562,0,0,1-3.77343-1.07813,3.44416,3.44416,0,0,1-1.35938-2.83594,3.05163,3.05163,0,0,1,1.5-2.53125,5.75468,5.75468,0,0,1,3.375-1.125,8.442,8.442,0,0,1,2.75391.35157,5.49409,5.49409,0,0,1,1.65234.91406,3.41848,3.41848,0,0,1,1.35938,2.67187A3.06841,3.06841,0,0,1,36.21,19.98584,6.88664,6.88664,0,0,1,32.249,21.04053Zm-4.92187,4.10156H37.40527V50.17334H27.32715Z" fill="#fe1b31"/><path d="M60.49316,27.69678a2.30414,2.30414,0,0,0-1.26562-.375,3.51327,3.51327,0,0,0-1.40625.3164,8.68654,8.68654,0,0,0-1.52344.87891,13.32732,13.32732,0,0,0-3.07031,3.1875V50.17334H43.14941V25.14209H53.22754V29.1499q4.00781-4.42968,9.07031-4.42969,8.27344,0,8.27344,8.01563v17.4375H60.49316Z" fill="#fe1b31"/><path d="M79.95459,55.70508a4.03881,4.03881,0,0,0,1.99219-1.14844,15.97294,15.97294,0,0,0,1.92187-3.375l.53906-1.24268L71.63428,25.14209H82.29834l6.65625,14.15625,3.84375-8.97656a28.12537,28.12537,0,0,0,1.38281-3.75,3.63359,3.63359,0,0,1,.64453-1.57032,1.1227,1.1227,0,0,1,.77344-.28125.92115.92115,0,0,1,.71484.28125.84038.84038,0,0,1,.25782.5625,3.28788,3.28788,0,0,1-.0586.59766,6.67571,6.67571,0,0,1-.23437.84375q-.17578.52734-.50391,1.32422L86.04834,50.87646a19.83222,19.83222,0,0,1-3.32813,5.74268,3.83056,3.83056,0,0,1-2.7539,1.47656q-1.39453,0-1.39453-.97265T79.95459,55.70508Z" fill="#fe1b31"/><path d="M134.69775,47.019q1.83691,0,1.83692,1.55957a1.355,1.355,0,0,1-.74512,1.10938,5.17625,5.17625,0,0,1-2.65137.48535H104.98779V1.11816h17.67969V47.88525h6.4834a14.32025,14.32025,0,0,0,3.76172-.43359A14.65578,14.65578,0,0,1,134.69775,47.019Z" fill="#050819"/><path d="M153.24316,44.00244q-6.342,0-8.66552-.10449l-1.00586,2.39258q-.45117,1.00635-.832,2.11523-.79835,2.14893-2.21875,2.14844a1.45266,1.45266,0,0,1-1.07422-.416,1.2254,1.2254,0,0,1-.416-.86621,3.03845,3.03845,0,0,1,.6582-1.69824,20.3724,20.3724,0,0,0,2.04493-3.81445q-2.981-.27685-2.98047-1.73242,0-1.45606,1.69824-1.457a10.17839,10.17839,0,0,1,2.42676.34766L160.17676-1.10059l23.71289,51.27393H165.82812l-2.87792-6.1709ZM145.687,41.19482q3.32813.27686,5.9624.27735h10.15723l-8.667-18.68653Z" fill="#050819"/><path d="M190.13184,1.11816h14.88964q5.52832,0,6.708.03467a21.92814,21.92814,0,0,1,7.2461,1.19629,12.13839,12.13839,0,0,1,3.3623,2.13184,8.63314,8.63314,0,0,1,2.669,6.3789,9.29806,9.29806,0,0,1-2.59961,6.51758,8.25065,8.25065,0,0,1-1.83789,1.49072,16.76125,16.76125,0,0,1,9.25683,4.74952,13.53355,13.53355,0,0,1,3.917,9.81152,15.13329,15.13329,0,0,1-3.63964,10.15723q-5.0962,5.89452-15.73926,6.44824-2.70411.13916-5.33887.13867H190.13184ZM212.874,18.1748l1.76758.208h.55469a6.496,6.496,0,0,0,4.75-2.01074,7.16518,7.16518,0,0,0,2.14844-5.26953,6.5113,6.5113,0,0,0-3.293-5.85889,7.97607,7.97607,0,0,0-3.31055-1.23047q-1.64794-.19043-2.583-.26025-1.94238-.13844-5.09668-.13867V47.60791h3.84864a26.65016,26.65016,0,0,0,9.60254-1.456,14.562,14.562,0,0,0,7.03808-4.92286,10.9874,10.9874,0,0,0,2.46192-6.76074,15.14279,15.14279,0,0,0-1.041-5.96289,11.16979,11.16979,0,0,0-3.01563-4.125q-4.02246-3.501-11.19726-3.50146l-2.39258.208a2.44391,2.44391,0,0,1-1.62891-.45068,1.34292,1.34292,0,0,1-.5205-1.04Q210.9668,18.1753,212.874,18.1748Z" fill="#050819"/><path d="M244.5293,43.91553a24.6253,24.6253,0,0,1-5.46094-8.11231A26.29818,26.29818,0,0,1,237.041,25.40283a25.458,25.458,0,0,1,1.92382-10.123,23.72114,23.72114,0,0,1,5.32129-7.78272Q251.56641.49438,262.55664.49414q10.91895,0,17.88867,6.89893,7.07228,7.00341,7.07227,18.166,0,11.12842-7.2461,18.30469a24.25708,24.25708,0,0,1-11.16308,6.13574,31.40131,31.40131,0,0,1-7.64453.832,24.46823,24.46823,0,0,1-8.92676-1.78515A23.63988,23.63988,0,0,1,244.5293,43.91553ZM262.52148,3.0249a21.76256,21.76256,0,0,0-3.57031.27735V48.02393a20.86631,20.86631,0,0,0,3.57031.27734,21.5134,21.5134,0,0,0,15.60059-6.1709q6.62109-6.41309,6.62207-16.57129a22.209,22.209,0,0,0-6.20605-16.08594A21.38516,21.38516,0,0,0,262.52148,3.0249Z" fill="#050819"/></svg>